<?xml version="1.0" standalone="no"?>
<!DOCTYPE svg PUBLIC "-//W3C//DTD SVG 20010904//EN"
 "http://www.w3.org/TR/2001/REC-SVG-20010904/DTD/svg10.dtd">
<svg version="1.0" xmlns="http://www.w3.org/2000/svg"
 width="113.000000pt" height="63.000000pt" viewBox="0 0 113.000000 63.000000"
 preserveAspectRatio="xMidYMid meet">

<g transform="translate(0.000000,63.000000) scale(0.100000,-0.100000)"
fill="#000000" stroke="none">
<path d="M120 333 c-24 -70 -45 -134 -48 -141 -2 -6 2 -12 10 -12 8 0 21 18
28 40 l13 41 60 -3 c59 -3 61 -4 72 -38 6 -19 19 -36 28 -38 14 -3 8 22 -31
135 -38 112 -51 139 -68 141 -17 2 -25 -14 -64 -125z m104 -20 c7 -22 5 -23
-43 -23 l-50 0 20 58 c10 31 22 64 25 72 6 14 20 -19 48 -107z"/>
<path d="M350 285 c0 -84 3 -105 14 -105 11 0 15 19 18 83 4 102 0 127 -18
127 -11 0 -14 -21 -14 -105z"/>
<path d="M408 379 c-28 -16 -21 -25 17 -21 30 4 36 1 45 -23 5 -14 10 -55 10
-91 0 -36 4 -64 10 -64 6 0 10 30 10 71 0 85 11 109 48 109 44 0 52 -16 52
-102 0 -63 3 -78 15 -78 12 0 15 15 15 79 0 64 -4 83 -21 105 -25 31 -61 34
-89 6 l-20 -20 -20 20 c-22 22 -46 25 -72 9z"/>
<path d="M733 380 c-26 -11 -53 -59 -53 -95 0 -38 27 -84 56 -95 42 -16 64
-12 95 19 24 24 29 38 29 76 0 38 -5 52 -29 76 -30 29 -58 35 -98 19z m78 -30
c15 -9 19 -22 19 -65 0 -43 -4 -56 -19 -65 -53 -28 -101 3 -101 65 0 62 48 93
101 65z"/>
<path d="M943 380 c-24 -10 -37 -41 -28 -69 5 -18 39 -37 79 -43 28 -4 45 -36
26 -48 -23 -15 -66 -12 -80 5 -9 11 -16 13 -23 6 -31 -31 66 -65 107 -38 47
31 38 91 -16 102 -64 13 -69 16 -66 38 3 25 45 35 77 18 29 -16 36 4 9 23 -25
18 -52 19 -85 6z"/>
</g>
</svg>
