<?xml version="1.0" standalone="yes"?>
<svg xmlns="http://www.w3.org/2000/svg" width="295" height="269">
<path style="fill:#f7f9fd; stroke:none;" d="M0 0L0 269L295 269L295 0L0 0z"/>
<path style="fill:#9db0ce; stroke:none;" d="M136 3L136 4L141 4L136 3z"/>
<path style="fill:#5dace6; stroke:none;" d="M141 3L142 4L141 3z"/>
<path style="fill:#646971; stroke:none;" d="M142 3L142 4L147 4L142 3z"/>
<path style="fill:#2566c8; stroke:none;" d="M147 3.51389C124.139 4.95007 102.972 9.5712 83 21.4529C12.4103 63.4474 1.83307 164.933 60.0147 221.961C87.2553 248.661 123.555 259.475 161 256.91C177.787 255.761 193.034 250.856 208 243.244C220.163 237.057 230.419 228.626 239.999 219C304.399 154.292 276.451 41.807 192 10.9468C177.977 5.82263 162.011 2.57083 147 3.51389z"/>
<path style="fill:#646971; stroke:none;" d="M150 3L150 4L156 4L150 3z"/>
<path style="fill:#5dace6; stroke:none;" d="M156 3L157 4L156 3z"/>
<path style="fill:#9db0ce; stroke:none;" d="M157 3L157 4L162 4L157 3M128 4L128 5L131 5L128 4z"/>
<path style="fill:#646971; stroke:none;" d="M131 4L132 5L131 4M165 4L166 5L165 4z"/>
<path style="fill:#5dace6; stroke:none;" d="M166 4L167 5L166 4z"/>
<path style="fill:#9db0ce; stroke:none;" d="M167.667 4.33334L168.333 4.66666L167.667 4.33334M123.667 5.33334L124.333 5.66666L123.667 5.33334z"/>
<path style="fill:#646971; stroke:none;" d="M125 5L126 6L125 5z"/>
<path style="fill:#5dace6; stroke:none;" d="M172 5L173 6L172 5z"/>
<path style="fill:#9db0ce; stroke:none;" d="M173.667 5.33334L174.333 5.66666L173.667 5.33334M118.667 6.33334L119.333 6.66666L118.667 6.33334z"/>
<path style="fill:#5dace6; stroke:none;" d="M120 6L121 7L120 6M177 6L178 7L177 6z"/>
<path style="fill:#9db0ce; stroke:none;" d="M178 6L179 7L178 6M115 7L116 8L115 7z"/>
<path style="fill:#646971; stroke:none;" d="M116 7L117 8L116 7z"/>
<path style="fill:#5dace6; stroke:none;" d="M181 7L182 8L181 7z"/>
<path style="fill:#9db0ce; stroke:none;" d="M182 7L183 8L182 7M111 8L112 9L111 8z"/>
<path style="fill:#5dace6; stroke:none;" d="M112 8L113 9L112 8z"/>
<path style="fill:#646971; stroke:none;" d="M145 8L146 9L145 8z"/>
<path style="fill:#5dace6; stroke:none;" d="M146.667 8.33334L147.333 8.66666L146.667 8.33334z"/>
<path style="fill:#646971; stroke:none;" d="M148 8L149 9L148 8z"/>
<path style="fill:#9db0ce; stroke:none;" d="M185 8L186 9L185 8M108 9L109 10L108 9z"/>
<path style="fill:#5dace6; stroke:none;" d="M109 9L110 10L109 9z"/>
<path style="fill:#646971; stroke:none;" d="M132 9L133 10L132 9z"/>
<path style="fill:#5dace6; stroke:none;" d="M133 9L134 10L133 9z"/>
<path style="fill:#9db0ce; stroke:none;" d="M134.667 9.33334L135.333 9.66666L134.667 9.33334z"/>
<path style="fill:#f7f9fd; stroke:none;" d="M76 42L218 42C192.021 -2.94354 101.993 -2.96729 76 42z"/>
<path style="fill:#9db0ce; stroke:none;" d="M158.667 9.33334L159.333 9.66666L158.667 9.33334z"/>
<path style="fill:#5dace6; stroke:none;" d="M160 9L161 10L160 9z"/>
<path style="fill:#646971; stroke:none;" d="M161 9L162 10L161 9z"/>
<path style="fill:#9db0ce; stroke:none;" d="M188 9L189 10L188 9M106 10L107 11L106 10z"/>
<path style="fill:#5dace6; stroke:none;" d="M127 10L128 11L127 10z"/>
<path style="fill:#9db0ce; stroke:none;" d="M128 10L129 11L128 10M165.667 10.3333L166.333 10.6667L165.667 10.3333z"/>
<path style="fill:#646971; stroke:none;" d="M190 10L191 11L190 10z"/>
<path style="fill:#9db0ce; stroke:none;" d="M191 10L192 11L191 10M103 11L104 12L103 11z"/>
<path style="fill:#5dace6; stroke:none;" d="M122 11L123 12L122 11z"/>
<path style="fill:#9db0ce; stroke:none;" d="M123 11L124 12L123 11M170 11L171 12L170 11z"/>
<path style="fill:#5dace6; stroke:none;" d="M171 11L172 12L171 11M193 11L194 12L193 11z"/>
<path style="fill:#9db0ce; stroke:none;" d="M194 11L195 12L194 11M100 12L101 13L100 12z"/>
<path style="fill:#646971; stroke:none;" d="M101 12L102 13L101 12M118 12L119 13L118 12z"/>
<path style="fill:#9db0ce; stroke:none;" d="M119 12L120 13L119 12M174 12L175 13L174 12z"/>
<path style="fill:#646971; stroke:none;" d="M175 12L176 13L175 12z"/>
<path style="fill:#5dace6; stroke:none;" d="M196 12L197 13L196 12z"/>
<path style="fill:#9db0ce; stroke:none;" d="M98 13L99 14L98 13M115 13L116 14L115 13M178 13L179 14L178 13M199 13L200 14L199 13z"/>
<path style="fill:#5dace6; stroke:none;" d="M96 14L97 15L96 14M112 14L113 15L112 14z"/>
<path style="fill:#9db0ce; stroke:none;" d="M113 14L114 15L113 14z"/>
<path style="fill:#5dace6; stroke:none;" d="M181 14L182 15L181 14z"/>
<path style="fill:#9db0ce; stroke:none;" d="M201 14L202 15L201 14M93 15L94 16L93 15z"/>
<path style="fill:#646971; stroke:none;" d="M94 15L95 16L94 15z"/>
<path style="fill:#9db0ce; stroke:none;" d="M110 15L111 16L110 15M183 15L184 16L183 15z"/>
<path style="fill:#646971; stroke:none;" d="M184 15L185 16L184 15z"/>
<path style="fill:#5dace6; stroke:none;" d="M203 15L204 16L203 15z"/>
<path style="fill:#9db0ce; stroke:none;" d="M91 16L92 17L91 16z"/>
<path style="fill:#646971; stroke:none;" d="M92 16L93 17L92 16z"/>
<path style="fill:#5dace6; stroke:none;" d="M107 16L108 17L107 16z"/>
<path style="fill:#9db0ce; stroke:none;" d="M186 16L187 17L186 16z"/>
<path style="fill:#5dace6; stroke:none;" d="M205 16L206 17L205 16z"/>
<path style="fill:#9db0ce; stroke:none;" d="M89 17L90 18L89 17z"/>
<path style="fill:#646971; stroke:none;" d="M90 17L91 18L90 17z"/>
<path style="fill:#9db0ce; stroke:none;" d="M105 17L106 18L105 17M188 17L189 18L188 17M207 17L208 18L207 17z"/>
<path style="fill:#646971; stroke:none;" d="M88 18L89 19L88 18z"/>
<path style="fill:#9db0ce; stroke:none;" d="M103 18L104 19L103 18M190 18L191 19L190 18M209 18L210 19L209 18z"/>
<path style="fill:#5dace6; stroke:none;" d="M86 19L87 20L86 19z"/>
<path style="fill:#9db0ce; stroke:none;" d="M101 19L102 20L101 19M192 19L193 20L192 19M211 19L212 20L211 19M84 20L85 21L84 20M99 20L100 21L99 20M194 20L195 21L194 20M82 21L83 22L82 21z"/>
<path style="fill:#5dace6; stroke:none;" d="M97 21L98 22L97 21M196 21L197 22L196 21M214 21L215 22L214 21M81 22L82 23L81 22z"/>
<path style="fill:#9db0ce; stroke:none;" d="M96 22L97 23L96 22M197 22L198 23L197 22M216 22L217 23L216 22M79 23L80 24L79 23M94 23L95 24L94 23M199 23L200 24L199 23z"/>
<path style="fill:#646971; stroke:none;" d="M217 23L218 24L217 23M78 24L79 25L78 24z"/>
<path style="fill:#9db0ce; stroke:none;" d="M93 24L94 25L93 24M219 24L220 25L219 24M76 25L77 26L76 25z"/>
<path style="fill:#5dace6; stroke:none;" d="M91 25L92 26L91 25M202 25L203 26L202 25z"/>
<path style="fill:#646971; stroke:none;" d="M220 25L221 26L220 25z"/>
<path style="fill:#5dace6; stroke:none;" d="M75 26L76 27L75 26z"/>
<path style="fill:#9db0ce; stroke:none;" d="M90 26L91 27L90 26M203 26L204 27L203 26M222 26L223 27L222 26M73 27L74 28L73 27z"/>
<path style="fill:#5dace6; stroke:none;" d="M223 27L224 28L223 27z"/>
<path style="fill:#9db0ce; stroke:none;" d="M72 28L73 29L72 28z"/>
<path style="fill:#646971; stroke:none;" d="M87 28L88 29L87 28z"/>
<path style="fill:#5dace6; stroke:none;" d="M206 28L207 29L206 28M71 29L72 30L71 29z"/>
<path style="fill:#9db0ce; stroke:none;" d="M86 29L87 30L86 29M207 29L208 30L207 29M226 29L227 30L226 29M85 30L86 31L85 30M208 30L209 31L208 30z"/>
<path style="fill:#5dace6; stroke:none;" d="M227 30L228 31L227 30z"/>
<path style="fill:#9db0ce; stroke:none;" d="M68 31L69 32L68 31M84 31L85 32L84 31M209 31L210 32L209 31M67 32L68 33L67 32M83 32L84 33L83 32M210 32L211 33L210 32z"/>
<path style="fill:#5dace6; stroke:none;" d="M66 33L67 34L66 33z"/>
<path style="fill:#9db0ce; stroke:none;" d="M82 33L83 34L82 33M211 33L212 34L211 33M231 33L232 34L231 33z"/>
<path style="fill:#646971; stroke:none;" d="M65 34L66 35L65 34z"/>
<path style="fill:#9db0ce; stroke:none;" d="M81 34L82 35L81 34M212 34L213 35L212 34M232 34L233 35L232 34M80 35L81 36L80 35M213 35L214 36L213 35M233 35L234 36L233 35M79 36L80 37L79 36M214 36L215 37L214 36M234 36L235 37L234 36z"/>
<path style="fill:#5dace6; stroke:none;" d="M78 37L79 38L78 37M215 37L216 38L215 37M235 37L236 38L235 37z"/>
<path style="fill:#9db0ce; stroke:none;" d="M60 38L61 39L60 38z"/>
<path style="fill:#5dace6; stroke:none;" d="M236 38L237 39L236 38z"/>
<path style="fill:#9db0ce; stroke:none;" d="M59 39L60 40L59 39M77 39L78 40L77 39M216 39L217 40L216 39z"/>
<path style="fill:#646971; stroke:none;" d="M237 39L238 40L237 39z"/>
<path style="fill:#9db0ce; stroke:none;" d="M58 40L59 41L58 40M76 40L77 41L76 40M217 40L218 41L217 40M57 41L58 42L57 41z"/>
<path style="fill:#5dace6; stroke:none;" d="M75 41L76 42L75 41M218 41L219 42L218 41z"/>
<path style="fill:#646971; stroke:none;" d="M239 41L240 42L239 41z"/>
<path style="fill:#9db0ce; stroke:none;" d="M110 73C128.352 74.4483 150.413 69.2889 168 74.7747C174.318 76.7454 178.715 81.3212 184 85L180 80C190.981 82.6143 203.026 79.3242 214 77.865C217.605 77.3856 222.426 78.0373 225.566 75.8248C232.604 70.8661 224.741 46.7094 218.671 43.0278C210.507 38.076 193.114 42.8877 184 42.9961C159.785 43.2842 135.191 44.02 111 42.9606C101.18 42.5307 85.4912 38.6824 76.1852 42.6034C68.7004 45.757 65.7823 62.824 66.098 69.9954C66.3503 75.7265 71.2413 76.5444 76 77.2323C85.519 78.6083 109.841 86.3978 110 73z"/>
<path style="fill:#5dace6; stroke:none;" d="M240 42L241 43L240 42M241 43L242 44L241 43M73 44L74 45L73 44M220 44L221 45L220 44z"/>
<path style="fill:#9db0ce; stroke:none;" d="M242 44L243 45L242 44z"/>
<path style="fill:#646971; stroke:none;" d="M54 45L55 46L54 45z"/>
<path style="fill:#9db0ce; stroke:none;" d="M243 45L244 46L243 45z"/>
<path style="fill:#646971; stroke:none;" d="M53 46L54 47L53 46z"/>
<path style="fill:#9db0ce; stroke:none;" d="M244 46L245 47L244 46z"/>
<path style="fill:#5dace6; stroke:none;" d="M52 47L53 48L52 47z"/>
<path style="fill:#9db0ce; stroke:none;" d="M245 47L246 48L245 47z"/>
<path style="fill:#5dace6; stroke:none;" d="M51 48L52 49L51 48z"/>
<path style="fill:#9db0ce; stroke:none;" d="M50 49L51 50L50 49M49 50L50 51L49 50z"/>
<path style="fill:#5dace6; stroke:none;" d="M248 51L249 52L248 51M69 52L70 53L69 52M224 52L225 53L224 52z"/>
<path style="fill:#9db0ce; stroke:none;" d="M249 52L250 53L249 52z"/>
<path style="fill:#5dace6; stroke:none;" d="M47 53L48 54L47 53z"/>
<path style="fill:#9db0ce; stroke:none;" d="M250 53L251 54L250 53M46 54L47 55L46 54z"/>
<path style="fill:#5dace6; stroke:none;" d="M68 55L69 56L68 55M225 55L226 56L225 55M251 55L252 56L251 55z"/>
<path style="fill:#9db0ce; stroke:none;" d="M252 56L253 57L252 56M44 57L45 58L44 57M43 58L44 59L43 58z"/>
<path style="fill:#5dace6; stroke:none;" d="M67.3333 58.6667L67.6667 59.3333L67.3333 58.6667M226 58L227 59L226 58z"/>
<path style="fill:#9db0ce; stroke:none;" d="M254 59L255 60L254 59z"/>
<path style="fill:#5dace6; stroke:none;" d="M42 60L43 61L42 60z"/>
<path style="fill:#9db0ce; stroke:none;" d="M256 62L257 63L256 62M40 63L41 64L40 63z"/>
<path style="fill:#5dace6; stroke:none;" d="M66 63L66 66L67 66L66 63M227 63L227 66L228 66L227 63z"/>
<path style="fill:#646971; stroke:none;" d="M257 64L258 65L257 64M39 65L40 66L39 65z"/>
<path style="fill:#9db0ce; stroke:none;" d="M258 65L259 66L258 65M38 66L39 67L38 66M259 67L260 68L259 67M37 68L38 69L37 68z"/>
<path style="fill:#5dace6; stroke:none;" d="M260 69L261 70L260 69z"/>
<path style="fill:#9db0ce; stroke:none;" d="M36 70L37 71L36 70z"/>
<path style="fill:#5dace6; stroke:none;" d="M261 71L262 72L261 71z"/>
<path style="fill:#9db0ce; stroke:none;" d="M35 72L36 73L35 72z"/>
<path style="fill:#f7f9fd; stroke:none;" d="M110 73C110.002 75.6522 109.263 80.0787 111.603 81.9761C115.497 85.1324 122.965 81.803 124.682 88.0586C129.281 104.811 125 128.584 125 146C125 151.498 126.983 161.944 123.821 166.682C121.316 170.436 113.881 169 110 169L110 179L153 179L153 169C148.904 169 140.751 170.544 137.603 167.397C134.593 164.386 136 156.88 136 153C136 141.6 133.204 128.628 148.985 131.148C154.632 132.05 157.462 138.693 160.333 143C167.274 153.411 174.205 169.326 183.76 177.397C188.214 181.158 199.445 179 205 179L205 169L193.093 167.972L184.28 157L166 129C188.751 122.446 196.921 90.7072 175 77.4792C161.134 69.1119 143.068 74.0168 128 74.7909C122.038 75.0972 115.963 73.256 110 73z"/>
<path style="fill:#5dace6; stroke:none;" d="M262 73L263 74L262 73M34 74L35 75L34 74M66 74C68.4954 93.3231 79.1523 105.245 93 118C84.5577 121.937 78.0831 131.266 73.2292 139C58.4063 162.617 52.3117 203.63 69.966 227.826C74.6892 234.3 84.0642 238.955 91 242.691C128.738 263.016 192.745 263.058 224.787 230.7C231.652 223.768 234.35 211.31 235.919 202C240.735 173.422 231.001 131.526 203 117L203 115C217.369 108.299 226.757 89.2135 228 74L227 74L214 77.5054L180 80C191.745 97.9987 190.007 122.071 166 129C170.432 140.693 181.383 156.615 190.04 165.682C197.124 173.102 204.989 164.31 205 179C199.246 179.247 191.448 181.815 186.04 178.972C169.924 170.502 168.12 142.258 152.675 133.028C148.684 130.643 141.506 132 137 132L137 168L153 168L153 180L110 180C110.001 168.766 113.431 168 124 168L124 110L123.397 86.4336L110 80C98.3312 82.5372 76.8238 78.8098 66 74M263 75L264 76L263 75z"/>
<path style="fill:#9db0ce; stroke:none;" d="M33 76L34 77L33 76z"/>
<path style="fill:#5dace6; stroke:none;" d="M264 77L265 78L264 77z"/>
<path style="fill:#9db0ce; stroke:none;" d="M32 78L33 79L32 78z"/>
<path style="fill:#5dace6; stroke:none;" d="M179 79L180 80L179 79z"/>
<path style="fill:#9db0ce; stroke:none;" d="M265 79L266 80L265 79M31 80L32 81L31 80z"/>
<path style="fill:#646971; stroke:none;" d="M31 81L32 82L31 81z"/>
<path style="fill:#9db0ce; stroke:none;" d="M266 81L267 82L266 81M110 82L111 83L110 82z"/>
<path style="fill:#646971; stroke:none;" d="M266 82L267 83L266 82z"/>
<path style="fill:#5dace6; stroke:none;" d="M30 83L31 84L30 83z"/>
<path style="fill:#9db0ce; stroke:none;" d="M114 83L114 84L118 84L114 83M144 83L144 84L159 84L144 83M122.667 84.3333L123.333 84.6667L122.667 84.3333M137 84L136 121L137 121C137 111.786 133.382 92.4161 139 85L137 84z"/>
<path style="fill:#5dace6; stroke:none;" d="M137 121C143.637 121 150.46 121.5 157 120.192C160.846 119.423 164.688 118.221 167.985 116.031C177.005 110.038 177.818 94.2393 168.956 87.6489C163.639 83.6943 157.273 84 151 84C147.583 84 140.478 82.7144 138.028 85.7423C136.088 88.1402 137 93.1351 137 96L137 121z"/>
<path style="fill:#9db0ce; stroke:none;" d="M162.667 84.3333L163.333 84.6667L162.667 84.3333M267 84L268 85L267 84M29 85L30 86L29 85M124 85L124 167L125 167L125 110L124 85M165 85L166 86L165 85z"/>
<path style="fill:#646971; stroke:none;" d="M29 86L30 87L29 86z"/>
<path style="fill:#9db0ce; stroke:none;" d="M167 86L168 87L167 86M184 86L185 87L184 86M268 86L269 87L268 86z"/>
<path style="fill:#5dace6; stroke:none;" d="M268 87L269 88L268 87z"/>
<path style="fill:#9db0ce; stroke:none;" d="M28 88L29 89L28 88M170 88L171 89L170 88M185 88L186 89L185 88z"/>
<path style="fill:#646971; stroke:none;" d="M28 89L29 90L28 89z"/>
<path style="fill:#9db0ce; stroke:none;" d="M171 89L172 90L171 89M269 89L270 90L269 89M186.333 90.6667L186.667 91.3333L186.333 90.6667z"/>
<path style="fill:#646971; stroke:none;" d="M269 90L270 91L269 90z"/>
<path style="fill:#9db0ce; stroke:none;" d="M27 91L28 92L27 91z"/>
<path style="fill:#646971; stroke:none;" d="M27 92L28 93L27 92z"/>
<path style="fill:#9db0ce; stroke:none;" d="M173 92L174 93L173 92M270 92L271 93L270 92z"/>
<path style="fill:#5dace6; stroke:none;" d="M270 93L271 94L270 93z"/>
<path style="fill:#9db0ce; stroke:none;" d="M26 94L27 95L26 94M174.333 94.6667L174.667 95.3333L174.333 94.6667M187.333 94.6667L187.667 95.3333L187.333 94.6667z"/>
<path style="fill:#5dace6; stroke:none;" d="M26 95L27 96L26 95z"/>
<path style="fill:#9db0ce; stroke:none;" d="M271 96L272 97L271 96z"/>
<path style="fill:#646971; stroke:none;" d="M271 97L272 98L271 97z"/>
<path style="fill:#9db0ce; stroke:none;" d="M25 98L26 99L25 98z"/>
<path style="fill:#5dace6; stroke:none;" d="M25 99L26 100L25 99z"/>
<path style="fill:#9db0ce; stroke:none;" d="M175 99L175 105L176 105L175 99M272.333 99.6667L272.667 100.333L272.333 99.6667z"/>
<path style="fill:#646971; stroke:none;" d="M272 101L273 102L272 101z"/>
<path style="fill:#9db0ce; stroke:none;" d="M24 102L25 103L24 102z"/>
<path style="fill:#5dace6; stroke:none;" d="M24 103L25 104L24 103z"/>
<path style="fill:#9db0ce; stroke:none;" d="M273 104L274 105L273 104M187.333 105.667L187.667 106.333L187.333 105.667z"/>
<path style="fill:#5dace6; stroke:none;" d="M273 105L274 106L273 105z"/>
<path style="fill:#9db0ce; stroke:none;" d="M23 107L24 108L23 107M174 107L175 108L174 107z"/>
<path style="fill:#5dace6; stroke:none;" d="M23 108L24 109L23 108z"/>
<path style="fill:#646971; stroke:none;" d="M23 109L24 110L23 109z"/>
<path style="fill:#9db0ce; stroke:none;" d="M274.333 109.667L274.667 110.333L274.333 109.667M173 110L174 111L173 110M186 110L187 111L186 110z"/>
<path style="fill:#5dace6; stroke:none;" d="M274 111L275 112L274 111z"/>
<path style="fill:#9db0ce; stroke:none;" d="M22.3333 113.667L22.6667 114.333L22.3333 113.667z"/>
<path style="fill:#5dace6; stroke:none;" d="M22 115L23 116L22 115z"/>
<path style="fill:#646971; stroke:none;" d="M22 116L23 117L22 116z"/>
<path style="fill:#9db0ce; stroke:none;" d="M167 116L168 117L167 116M275 116L275 119L276 119L275 116M165 117L166 118L165 117M163 118L164 119L163 118M182 118L183 119L182 118M160 119L161 120L160 119M181 119L182 120L181 119z"/>
<path style="fill:#5dace6; stroke:none;" d="M275.333 119.667L275.667 120.333L275.333 119.667z"/>
<path style="fill:#9db0ce; stroke:none;" d="M155.667 120.333L156.333 120.667L155.667 120.333M180 120L181 121L180 120M179 121L180 122L179 121z"/>
<path style="fill:#646971; stroke:none;" d="M275 121L276 122L275 121z"/>
<path style="fill:#9db0ce; stroke:none;" d="M21 122L21 139L22 139L21 122M178 122L179 123L178 122M177 123L178 124L177 123M174 125L175 126L174 125M172 126L173 127L172 126M170 127L171 128L170 127M168 128L169 129L168 128M137 131L137 132L153 132L137 131M136 132L136 168L137 168C137 157.613 140.011 141.56 136 132M153 132L154 133L153 132M167 132L168 133L167 132M154 134L155 135L154 134M155 135L156 136L155 135M169 135L170 136L169 135M156 137L157 138L156 137M157 138L158 139L157 138M171 138L172 139L171 138z"/>
<path style="fill:#646971; stroke:none;" d="M275 139L276 140L275 139z"/>
<path style="fill:#5dace6; stroke:none;" d="M275.333 140.667L275.667 141.333L275.333 140.667z"/>
<path style="fill:#9db0ce; stroke:none;" d="M159 141L160 142L159 141M173 141L174 142L173 141M275 142L275 145L276 145L275 142z"/>
<path style="fill:#5dace6; stroke:none;" d="M22.3333 144.667L22.6667 145.333L22.3333 144.667z"/>
<path style="fill:#9db0ce; stroke:none;" d="M161 144L162 145L161 144M175 144L176 145L175 144M22.3333 146.667L22.6667 147.333L22.3333 146.667M162 146L163 147L162 146M163 147L164 148L163 147M177 147L178 148L177 147M178 148L179 149L178 148M164 149L165 150L164 149z"/>
<path style="fill:#5dace6; stroke:none;" d="M274 149L275 150L274 149z"/>
<path style="fill:#9db0ce; stroke:none;" d="M165 150L166 151L165 150M179 150L180 151L179 150M274.333 150.667L274.667 151.333L274.333 150.667z"/>
<path style="fill:#646971; stroke:none;" d="M23 151L24 152L23 151z"/>
<path style="fill:#9db0ce; stroke:none;" d="M180 151L181 152L180 151M23.3333 152.667L23.6667 153.333L23.3333 152.667M166 152L167 153L166 152M167 153L168 154L167 153M181 153L182 154L181 153M182 154L183 155L182 154z"/>
<path style="fill:#646971; stroke:none;" d="M273 154L274 155L273 154z"/>
<path style="fill:#9db0ce; stroke:none;" d="M168 155L169 156L168 155z"/>
<path style="fill:#5dace6; stroke:none;" d="M273 155L274 156L273 155z"/>
<path style="fill:#9db0ce; stroke:none;" d="M169 156L170 157L169 156M273 156L274 157L273 156z"/>
<path style="fill:#5dace6; stroke:none;" d="M24 157L25 158L24 157z"/>
<path style="fill:#9db0ce; stroke:none;" d="M184 157L185 158L184 157M24 158L25 159L24 158M170 158L171 159L170 158M171 159L172 160L171 159z"/>
<path style="fill:#5dace6; stroke:none;" d="M272 159L273 160L272 159z"/>
<path style="fill:#9db0ce; stroke:none;" d="M186 160L187 161L186 160M272.333 160.667L272.667 161.333L272.333 160.667z"/>
<path style="fill:#5dace6; stroke:none;" d="M25 161L26 162L25 161z"/>
<path style="fill:#9db0ce; stroke:none;" d="M172 161L173 162L172 161M25 162L26 163L25 162M173 162L174 163L173 162M188 163L189 164L188 163z"/>
<path style="fill:#646971; stroke:none;" d="M271 163L272 164L271 163z"/>
<path style="fill:#9db0ce; stroke:none;" d="M174 164L175 165L174 164M271 164L272 165L271 164z"/>
<path style="fill:#5dace6; stroke:none;" d="M26 165L27 166L26 165z"/>
<path style="fill:#9db0ce; stroke:none;" d="M175 165L176 166L175 165M26 166L27 167L26 166M190 166L191 167L190 166M176 167L177 168L176 167z"/>
<path style="fill:#5dace6; stroke:none;" d="M270 167L271 168L270 167M27 168L28 169L27 168z"/>
<path style="fill:#9db0ce; stroke:none;" d="M111 168L111 169L124 169L111 168M137 168L137 169L153 169L137 168M177 168L178 169L177 168M192 168L192 169L204 169L192 168M270 168L271 169L270 168M27 169L28 170L27 169M178 170L179 171L178 170z"/>
<path style="fill:#5dace6; stroke:none;" d="M269 170L270 171L269 170M28 171L29 172L28 171z"/>
<path style="fill:#9db0ce; stroke:none;" d="M179 171L180 172L179 171M269 171L270 172L269 171M28 172L29 173L28 172M180 173L181 174L180 173z"/>
<path style="fill:#5dace6; stroke:none;" d="M268 173L269 174L268 173M29 174L30 175L29 174z"/>
<path style="fill:#9db0ce; stroke:none;" d="M181 174L182 175L181 174M268 174L269 175L268 174M29 175L30 176L29 175M182 176L183 177L182 176M267 176L268 177L267 176M30 177L31 178L30 177M183 177L184 178L183 177z"/>
<path style="fill:#5dace6; stroke:none;" d="M266 178L267 179L266 178M31 179L32 180L31 179z"/>
<path style="fill:#9db0ce; stroke:none;" d="M110 179L110 180L153 180C141.774 175.29 122.219 179 110 179M185 179L185 180L200 180L185 179M266 179L267 180L266 179M31 180L32 181L31 180M265 181L266 182L265 181M32 182L33 183L32 182M143.743 183.028C138.187 187.561 147.145 195.84 152.566 191.257C159.437 185.449 149.234 178.547 143.743 183.028M264 183L265 184L264 183M33 184L34 185L33 184M263 185L264 186L263 185M34 186L35 187L34 186M262 187L263 188L262 187M35 188L36 189L35 188M261 189L262 190L261 189M36 190L37 191L36 190M260 191L261 192L260 191M37 192L38 193L37 192z"/>
<path style="fill:#646971; stroke:none;" d="M38 193L39 194L38 193z"/>
<path style="fill:#9db0ce; stroke:none;" d="M259 193L260 194L259 193z"/>
<path style="fill:#646971; stroke:none;" d="M258 194L259 195L258 194z"/>
<path style="fill:#9db0ce; stroke:none;" d="M39 195L40 196L39 195z"/>
<path style="fill:#5dace6; stroke:none;" d="M257 196L258 197L257 196z"/>
<path style="fill:#9db0ce; stroke:none;" d="M40 197L41 198L40 197z"/>
<path style="fill:#5dace6; stroke:none;" d="M41 198L42 199L41 198z"/>
<path style="fill:#9db0ce; stroke:none;" d="M256 198L257 199L256 198z"/>
<path style="fill:#5dace6; stroke:none;" d="M255 199L256 200L255 199z"/>
<path style="fill:#9db0ce; stroke:none;" d="M42 200L43 201L42 200z"/>
<path style="fill:#646971; stroke:none;" d="M43 201L44 202L43 201z"/>
<path style="fill:#9db0ce; stroke:none;" d="M254 201L255 202L254 201z"/>
<path style="fill:#5dace6; stroke:none;" d="M253 202L254 203L253 202z"/>
<path style="fill:#9db0ce; stroke:none;" d="M44 203L45 204L44 203z"/>
<path style="fill:#5dace6; stroke:none;" d="M45 204L46 205L45 204z"/>
<path style="fill:#9db0ce; stroke:none;" d="M252 204L253 205L252 204M251 205L252 206L251 205M46 206L47 207L46 206M47 207L48 208L47 207z"/>
<path style="fill:#5dace6; stroke:none;" d="M48 208L49 209L48 208z"/>
<path style="fill:#9db0ce; stroke:none;" d="M249 208L250 209L249 208M248 209L249 210L248 209z"/>
<path style="fill:#5dace6; stroke:none;" d="M247 210L248 211L247 210z"/>
<path style="fill:#9db0ce; stroke:none;" d="M50 211L51 212L50 211M51 212L52 213L51 212M52 213L53 214L52 213z"/>
<path style="fill:#5dace6; stroke:none;" d="M53 214L54 215L53 214z"/>
<path style="fill:#9db0ce; stroke:none;" d="M244 214L245 215L244 214z"/>
<path style="fill:#646971; stroke:none;" d="M54 215L55 216L54 215z"/>
<path style="fill:#9db0ce; stroke:none;" d="M243 215L244 216L243 215M242 216L243 217L242 216z"/>
<path style="fill:#5dace6; stroke:none;" d="M241 217L242 218L241 217M240 218L241 219L240 218M239 219L240 220L239 219M238 220L239 221L238 220M237 221L238 222L237 221z"/>
<path style="fill:#9db0ce; stroke:none;" d="M236 222L237 223L236 222M235 223L222.603 236.09L219 252C228.873 255.541 249.348 248.752 259 245.302C262.629 244.004 270.432 241.288 269.11 236.101C266.754 226.864 242.518 225.388 235 223M82 253L82 252L78 252C77.0984 240.576 75.5893 229.909 63 225.31C56.9319 223.094 33.4421 229.056 31.7515 236.101C30.5162 241.249 38.4077 244.017 42 245.302C54.2917 249.696 68.9674 252.44 82 253z"/>
<path style="fill:#646971; stroke:none;" d="M234 224L235 225L234 224M233 225L234 226L233 225M65 226L66 227L65 226M66 227L67 228L66 227M67 228L68 229L67 228M68 229L69 230L68 229M228 229L229 230L228 229M227 230L228 231L227 230M71 231L72 232L71 231M226 231L227 232L226 231M72 232L73 233L72 232M225 232L226 233L225 232M73 233L74 234L73 233M223 233L224 234L223 233M75 234L76 235L75 234M222 234L223 235L222 234M76 235L77 236L76 235M221 235C206.609 243.839 191.019 252.708 174 255L174 256C184.335 255.971 194.684 254.505 205 254C208.842 253.812 216.263 254.173 219.436 251.821C223.386 248.893 222.648 238.927 221 235M77 236L78 252L124 256L124 255C106.296 253.456 92.9014 242.018 77 236z"/>
<path style="fill:#9db0ce; stroke:none;" d="M86 253L86 254L91 254L86 253M210 253L210 254L215 254L210 253M96 254L96 255L102 255L96 254M199 254L199 255L204 255L199 254M112 255L112 256L117 256L112 255M182 255L182 256L189 256L182 255M130.667 256.333L131.333 256.667L130.667 256.333z"/>
<path style="fill:#646971; stroke:none;" d="M132 256L133 257L132 256M164.667 256.333L165.333 256.667L164.667 256.333z"/>
<path style="fill:#9db0ce; stroke:none;" d="M166 256L166 257L169 257L166 256M139 257L139 258L159 258L139 257z"/>
</svg>
