<?xml version="1.0" standalone="yes"?>
<svg xmlns="http://www.w3.org/2000/svg" width="225" height="225">
<path style="fill:#f6f9f9; stroke:none;" d="M0 0L0 225L225 225L225 0L0 0z"/>
<path style="fill:#2395e9; stroke:none;" d="M97.6667 4.33333L98.3333 4.66667L97.6667 4.33333z"/>
<path style="fill:#475059; stroke:none;" d="M99 4.42516C82.5679 6.66193 67.0012 11.6731 53 20.6921C40.6388 28.6547 29.9064 38.7828 21.6713 51C-29.516 126.939 33.3854 231.671 125 220.715C141.385 218.755 156.893 213.583 171 204.997C182.503 197.995 192.34 188.792 200.37 178C256.419 102.682 193.396 -8.42421 99 4.42516z"/>
<path style="fill:#2395e9; stroke:none;" d="M126.667 4.33333L127.333 4.66667L126.667 4.33333M91 5L92 6L91 5M133 5L134 6L133 5M86.6667 6.33333L87.3333 6.66667L86.6667 6.33333M82 7L83 8L82 7M142 7L143 8L142 7M79 8L80 9L79 8M145 8L146 9L145 8M148 9L149 10L148 9M73 10L74 11L73 10M107 10L107 11L110 11L107 10z"/>
<path style="fill:#f6f9f9; stroke:none;" d="M98 11L98 12C121.361 12 142.223 12.8556 163 25.0116C178.489 34.0739 191.009 46.592 200.199 62C208.445 75.8247 213.804 92.8094 213.996 109C214.522 153.202 186.215 195.629 143 208.562C87.7776 225.087 14.7475 189.019 12 126C7.91531 136.015 17.7281 153.25 22.2585 162C41.6861 199.523 86.7629 219.988 128 213.561C202.999 201.871 242.154 110.913 194.331 50C169.302 18.1199 136.084 11 98 11z"/>
<path style="fill:#2395e9; stroke:none;" d="M115 10L115 11L118 11L115 10M151 10L152 11L151 10M96 11L99 13L96 11M128 11L129 12L128 11M68 12L69 13L68 12M90 12L93 14L93 13L90 12z"/>
<path style="fill:#f6f9f9; stroke:none;" d="M91 12L91 13L97 13L91 12z"/>
<path style="fill:#1673c5; stroke:none;" d="M70 20C60.5342 29.1517 37.8312 33.7768 35 49L20 69L17 76L14 85C13.6208 97.9639 10.977 110.759 11.7492 124C13.2697 150.071 29.7789 176.118 50.0008 191.735C60.9292 200.175 73.6894 202.968 85 210C104.077 210.518 122.197 214.541 141.09 208.62C145.974 207.09 152.845 206.285 156 202L173 194L172 192C179.369 190.248 185.277 183.337 189.87 177.576C192.294 174.536 193.121 170.319 197 169L208 146L211 138C211.501 119.564 214.983 104.412 209.781 86C208.396 81.1001 208.392 75.2313 204 72C203.927 66.6248 199.627 58.7736 195 56C194.272 49.0473 182.608 37.7412 176 36C174.499 28.7168 160.271 23.8294 154 21.1497C136.522 13.6811 118.146 9.68668 99 12.4282C89.2719 13.8213 79.5946 19.5608 70 20z"/>
<path style="fill:#2395e9; stroke:none;" d="M125 12L125 13L128 13L125 12M134 12L135 13L134 12M156 12L157 13L156 12M66 13L67 14L66 13M86 13L88 15L86 13z"/>
<path style="fill:#f6f9f9; stroke:none;" d="M87 13L87 14L91 14L87 13z"/>
<path style="fill:#2395e9; stroke:none;" d="M132 13L133 14L132 13M138 13L139 14L138 13M158 13L159 14L158 13z"/>
<path style="fill:#f6f9f9; stroke:none;" d="M75 17L75 18L87 15L75 17z"/>
<path style="fill:#475059; stroke:none;" d="M135 14L136 15L135 14z"/>
<path style="fill:#2395e9; stroke:none;" d="M137 14L138 15L137 14M83 15L84 16L83 15z"/>
<path style="fill:#475059; stroke:none;" d="M84 15L84 16L87 16L84 15M138.667 15.3333L139.333 15.6667L138.667 15.3333z"/>
<path style="fill:#2395e9; stroke:none;" d="M140.667 15.3333L141.333 15.6667L140.667 15.3333M145 15L146 16L145 15M80 16L81 17L80 16z"/>
<path style="fill:#475059; stroke:none;" d="M82.6667 16.3333L83.3333 16.6667L82.6667 16.3333z"/>
<path style="fill:#2395e9; stroke:none;" d="M144 16L145 17L144 16M58 17L59 18L58 17M74.3333 17.6667L74.6667 18.3333L74.3333 17.6667M77 17L78 18L77 17z"/>
<path style="fill:#475059; stroke:none;" d="M78.6667 17.3333L79.3333 17.6667L78.6667 17.3333M145.667 17.3333L146.333 17.6667L145.667 17.3333z"/>
<path style="fill:#2395e9; stroke:none;" d="M150 17L151 18L150 17M166 17L167 18L166 17z"/>
<path style="fill:#f6f9f9; stroke:none;" d="M66 21L66 22L74 19L66 21z"/>
<path style="fill:#475059; stroke:none;" d="M75.6667 18.3333L76.3333 18.6667L75.6667 18.3333M147.667 18.3333L148.333 18.6667L147.667 18.3333z"/>
<path style="fill:#2395e9; stroke:none;" d="M149 18L150 19L149 18M153 18L154 19L153 18M168 18L169 19L168 18M69 19L70 20L69 19M72 19L73 20L72 19z"/>
<path style="fill:#475059; stroke:none;" d="M73 19L74 20L73 19M150 19L150 20L156 22L156 21L150 19z"/>
<path style="fill:#2395e9; stroke:none;" d="M152 19L153 20L152 19M155 19L156 20L155 19M53 20L54 21L53 20M67 20L68 21L67 20z"/>
<path style="fill:#475059; stroke:none;" d="M71 20L72 21L71 20z"/>
<path style="fill:#2395e9; stroke:none;" d="M154 20L155 21L154 20M157 20L158 21L157 20M171 20L172 21L171 20M65.3333 21.6667L65.6667 22.3333L65.3333 21.6667z"/>
<path style="fill:#475059; stroke:none;" d="M68.6667 21.3333L69.3333 21.6667L68.6667 21.3333z"/>
<path style="fill:#2395e9; stroke:none;" d="M156 21L157 22L156 21M159 21L160 22L159 21M50 22L51 23L50 22M63 22L64 23L63 22z"/>
<path style="fill:#f6f9f9; stroke:none;" d="M64 22L65 23L64 22z"/>
<path style="fill:#475059; stroke:none;" d="M67 22L68 23L67 22M157 22L158 23L157 22z"/>
<path style="fill:#2395e9; stroke:none;" d="M158 22L159 23L158 22M161 22L162 23L161 22M61 23L62 24L61 23z"/>
<path style="fill:#f6f9f9; stroke:none;" d="M62.6667 23.3333L63.3333 23.6667L62.6667 23.3333z"/>
<path style="fill:#475059; stroke:none;" d="M159 23L160 24L159 23z"/>
<path style="fill:#2395e9; stroke:none;" d="M160 23L161 24L160 23M163 23L164 24L163 23M47 24L48 25L47 24z"/>
<path style="fill:#f6f9f9; stroke:none;" d="M46 35L62 25C56.3972 24.1871 49.2244 30.8222 46 35z"/>
<path style="fill:#2395e9; stroke:none;" d="M162 24L163 25L162 24M177 24L178 25L177 24M60 25L61 26L60 25z"/>
<path style="fill:#475059; stroke:none;" d="M61 25L62 26L61 25M162.667 25.3333L163.333 25.6667L162.667 25.3333z"/>
<path style="fill:#2395e9; stroke:none;" d="M56 26L57 27L56 26M58 26L59 27L58 26M168 26L169 27L168 26z"/>
<path style="fill:#475059; stroke:none;" d="M166 27L167 28L166 27z"/>
<path style="fill:#2395e9; stroke:none;" d="M167 27L168 28L167 27M181 27L182 28L181 27M42 28L43 29L42 28M53 28L54 29L53 28M55 28L56 29L55 28M182 28L183 29L182 28z"/>
<path style="fill:#475059; stroke:none;" d="M54 29L55 30L54 29M169 29L170 30L169 29z"/>
<path style="fill:#2395e9; stroke:none;" d="M170 29L171 30L170 29M52 30L53 31L52 30M171 30L172 31L171 30M51 31L52 32L51 31z"/>
<path style="fill:#475059; stroke:none;" d="M172 31L173 32L172 31z"/>
<path style="fill:#2395e9; stroke:none;" d="M173 31L174 32L173 31M175 31L176 32L175 31M132 32L135 34L132 32M174 32L175 33L174 32M48 33L49 34L48 33M47 34L48 35L47 34M96 34L96 52L97 52L96 34z"/>
<path style="fill:#f6f9f9; stroke:none;" d="M97 34L98 35L97 34z"/>
<path style="fill:#f7f93f; stroke:none;" d="M97 52L132 52C132 47.8329 133.672 39.0125 130.972 35.6034C127.545 31.2759 110.214 33.9648 105 34.0008C102.791 34.016 99.5833 33.6394 98.0278 35.6034C95.3277 39.0125 97 47.8329 97 52z"/>
<path style="fill:#f6f9f9; stroke:none;" d="M131 34L132 35L131 34z"/>
<path style="fill:#2395e9; stroke:none;" d="M189 34L190 35L189 34M44 35L43 37L44 35z"/>
<path style="fill:#f6f9f9; stroke:none;" d="M45 35L46 36L45 35z"/>
<path style="fill:#475059; stroke:none;" d="M176.667 35.3333L177.333 35.6667L176.667 35.3333z"/>
<path style="fill:#2395e9; stroke:none;" d="M178 35L179 36L178 35z"/>
<path style="fill:#f6f9f9; stroke:none;" d="M44 36L45 37L44 36z"/>
<path style="fill:#2395e9; stroke:none;" d="M179 36L181 38L179 36M181 36L182 37L181 36z"/>
<path style="fill:#f6f9f9; stroke:none;" d="M34 47L44 37L34 47z"/>
<path style="fill:#475059; stroke:none;" d="M179 37L180 38L179 37z"/>
<path style="fill:#2395e9; stroke:none;" d="M182 37L183 38L182 37M192 37L193 38L192 37z"/>
<path style="fill:#475059; stroke:none;" d="M43 38L44 39L43 38z"/>
<path style="fill:#2395e9; stroke:none;" d="M134 38L134 40L136 38L134 38M181 38L182 39L181 38z"/>
<path style="fill:#475059; stroke:none;" d="M183 40L184 41L183 40M184 41L185 42L184 41z"/>
<path style="fill:#2395e9; stroke:none;" d="M185 42L186 43L185 42M187 42L188 43L187 42M27 43L28 44L27 43z"/>
<path style="fill:#475059; stroke:none;" d="M38 43L39 44L38 43M185.667 43.3333L186.333 43.6667L185.667 43.3333z"/>
<path style="fill:#2395e9; stroke:none;" d="M188 43L189 44L188 43M26 44L27 45L26 44M35 44L36 45L35 44z"/>
<path style="fill:#475059; stroke:none;" d="M37 44L38 45L37 44z"/>
<path style="fill:#2395e9; stroke:none;" d="M187 44L188 45L187 44M189 44L190 45L189 44M34 45L35 46L34 45z"/>
<path style="fill:#475059; stroke:none;" d="M36 45L37 46L36 45z"/>
<path style="fill:#2395e9; stroke:none;" d="M188 45L190 47L188 45M190 45L191 46L190 45z"/>
<path style="fill:#475059; stroke:none;" d="M188 46L189 47L188 46z"/>
<path style="fill:#f6f9f9; stroke:none;" d="M33 47L28 55L29 55L33 47z"/>
<path style="fill:#475059; stroke:none;" d="M35 47L36 48L35 47M189 47L190 48L189 47z"/>
<path style="fill:#2395e9; stroke:none;" d="M23 48L24 49L23 48M33 48L34 49L33 48z"/>
<path style="fill:#475059; stroke:none;" d="M34 48L35 49L34 48z"/>
<path style="fill:#2395e9; stroke:none;" d="M32 49L33 50L32 49M30 50L31 51L30 50M135 50L136 51L135 50M143 50L144 51L143 50M192 50L194 52L192 50M194 50L195 51L194 50M21 51L22 52L21 51M132 51L131 52L132 55L127 53L124 53L125 55L119 54C119 62.9983 122.151 76.8945 111 79L111 52L110 52L104 53L105 62L100 60L103 60L103 59L102 56L97 64L96 64L94 59C90.1891 61.8582 80.853 60.588 82 56C72.828 60.8869 64.3183 59.9993 54 60C49.4595 60.0003 44.6551 59.0132 43 64L44 64L44 61L80 60L81 60L84 64L81 67L81 74L80 74L80 63L79 63L81 77L65 80L70 79L72 84L66 81L66 82L72 85L71 88L78 89L77 91L78 91L80 91L80 92C84.1005 91.8239 88.955 90.1998 92.8873 91.8943C96.3704 93.3952 96.9135 97.5296 92.8873 98.6821C85.0424 100.928 77.5486 96.5661 70 97L69 94L65 95L65 94L67 93L59 81L58 81L59 88L65 93L53 93L54 97L63 95L63 96L61 112L58 112L58 120L61 120L58 129L57 133C61.9605 137.51 81.2995 136.134 88 135L95 141L94 143L97 144L97 140L98 140L98 144L99 144L101 135C113.322 133.939 115.999 140.434 116 152L117 152L117 147L118 147L117 169L118 169L119 152L120 152C120 157.074 118.283 164.942 123 168L121 166L121 165L125 163L128 168L128 169L119 169L119 170L131 170L131 171L114 171L114 172L132 172L132 177L133 177L132 169L135 168L136 165L136 164L132 167L131 167L132 163L128 166L128 161L133 161L133 160L130 161L131 148L132 148L132 150L133 150L133 146L135 146L135 150L136 150L135 144L137 144L136 141L138 142L137 139L141 136L143 135L165 131L165 132L162 133L162 134L165 135L168 132L168 131L165 131L165 130L173 130L171 100L169.778 91.2222L174 92C173.425 88.6459 172.282 87.7359 169 87L170 83L169 83L168 89L157 98L154 97C152.657 98.7902 138.308 100.479 134 100C131.516 99.724 131.071 93.5977 134 92C138.01 89.8127 145.395 92.9014 149 92C152.376 91.1561 151.586 89.3964 154 90L153 88L156 89L159 85L157 88L161 84L157 82L162 83L161 80L163 81L163 78L146 77L146 76L149 72L148 72L145 73L149 64L149 63L145 64L146 58L146 57L143 54L143 57L137 59L138 62C135.303 61.1456 134.614 61.1492 134 64L128 61L128 60L136 60L135 53L138 54L132 51z"/>
<path style="fill:#475059; stroke:none;" d="M192 51L193 52L192 51z"/>
<path style="fill:#2395e9; stroke:none;" d="M203 51L204 52L203 51M30 52L31 53L30 52z"/>
<path style="fill:#f6f9f9; stroke:none;" d="M111 52L111 79C122.184 78.0863 118 60.6905 118 52L111 52z"/>
<path style="fill:#1673c5; stroke:none;" d="M118 52L118 72L119 72L119 54C121.283 54.723 123.558 55.6802 124 53L127 53L126 55L132 55C129.147 50.5996 122.745 52 118 52z"/>
<path style="fill:#2395e9; stroke:none;" d="M29 53L30 54L29 53M96 53L99 55L96 53M101.333 53.6667L101.667 54.3333L101.333 53.6667z"/>
<path style="fill:#475059; stroke:none;" d="M194 53L195 54L194 53z"/>
<path style="fill:#2395e9; stroke:none;" d="M19 54L20 55L19 54z"/>
<path style="fill:#475059; stroke:none;" d="M29 54L30 55L29 54z"/>
<path style="fill:#1673c5; stroke:none;" d="M133 54L135 56L135 54L133 54z"/>
<path style="fill:#2395e9; stroke:none;" d="M205 54L206 55L205 54z"/>
<path style="fill:#f6f9f9; stroke:none;" d="M27 55L26 58L27 58L27 55z"/>
<path style="fill:#1673c5; stroke:none;" d="M107 55L107 63L108 63L108 56L109 56L109 58C110.118 55.8603 109.251 55.4733 107 55M130 55L130 57L132 57L130 55z"/>
<path style="fill:#475059; stroke:none;" d="M195 55L196 56L195 55z"/>
<path style="fill:#2395e9; stroke:none;" d="M196 55L197 56L196 55M27 56L28 57L27 56M72.6667 56.3333L73.3333 56.6667L72.6667 56.3333M75 59L78 56L75 59z"/>
<path style="fill:#1673c5; stroke:none;" d="M122 56L125 64L127 56L122 56z"/>
<path style="fill:#2395e9; stroke:none;" d="M146 56L147 57L146 56M148 56L149 57L148 56z"/>
<path style="fill:#475059; stroke:none;" d="M27 57L28 58L27 57z"/>
<path style="fill:#f6f9f9; stroke:none;" d="M25 58C17.812 70.3153 11.299 84.512 11 99L12 99L18.8619 73L25 58z"/>
<path style="fill:#2395e9; stroke:none;" d="M47 58L48 59L47 58M72 58L73 59L72 58z"/>
<path style="fill:#1673c5; stroke:none;" d="M80 58L79 60L80 58z"/>
<path style="fill:#2395e9; stroke:none;" d="M147 58L148 59L147 58M149 58L150 59L149 58M16 59L17 60L16 59M25 59L26 60L25 59M42 59L43 60L42 59M95 59L96 60L95 59M147 62C158.361 59.8908 173.726 59.316 185 62L185 59C175.903 61.1658 153.127 54.9879 147 62z"/>
<path style="fill:#475059; stroke:none;" d="M198 59L199 60L198 59z"/>
<path style="fill:#2395e9; stroke:none;" d="M200 59L201 60L200 59M208 59L209 60L208 59z"/>
<path style="fill:#475059; stroke:none;" d="M25 60L26 61L25 60z"/>
<path style="fill:#f6f9f9; stroke:none;" d="M78 60L77 62L79 62L78 60z"/>
<path style="fill:#1673c5; stroke:none;" d="M80 60L80 74L81 74L81 67L84 64L80 60M140 60L141 64L136 65L136 67L145 67L140 60z"/>
<path style="fill:#2395e9; stroke:none;" d="M199 60L200 61L199 60M24 61L25 62L24 61z"/>
<path style="fill:#f7f93f; stroke:none;" d="M44 61L44 78C49.3016 78 57.8498 74.8538 62.2693 75.6296C66.1536 76.3115 74.3242 81.1809 77.7816 76.3966C79.8534 73.5297 78.3085 65.7271 79 62L44 61z"/>
<path style="fill:#f6f9f9; stroke:none;" d="M149 61L149 78L150 78L149 61z"/>
<path style="fill:#f7f93f; stroke:none;" d="M150 61L150 78C155.33 78 167.464 73.9323 170 78L184 78L182.972 62.6034L174 61L150 61z"/>
<path style="fill:#f6f9f9; stroke:none;" d="M156.667 61.3333L157.333 61.6667L156.667 61.3333M183 61L184 62L183 61z"/>
<path style="fill:#475059; stroke:none;" d="M199 61L200 62L199 61z"/>
<path style="fill:#2395e9; stroke:none;" d="M22 62L23 63L22 62z"/>
<path style="fill:#475059; stroke:none;" d="M79 62L80 63L79 62z"/>
<path style="fill:#f6f9f9; stroke:none;" d="M184 62L184 78L185 78L184 62z"/>
<path style="fill:#2395e9; stroke:none;" d="M202 62L203 63L202 62M23 63L24 64L23 63z"/>
<path style="fill:#1673c5; stroke:none;" d="M104 63L105 64L104 63z"/>
<path style="fill:#2395e9; stroke:none;" d="M186 63L187 64L186 63M21 64L22 65L21 64z"/>
<path style="fill:#475059; stroke:none;" d="M23 64L24 65L23 64z"/>
<path style="fill:#f6f9f9; stroke:none;" d="M78 64L78 73L79 73L78 64z"/>
<path style="fill:#1673c5; stroke:none;" d="M85 64L86 65L85 64M87 64L88 65L87 64M107 64L107 73L108 73L107 64M147 64L145 73L148 74L149 64L147 64z"/>
<path style="fill:#2395e9; stroke:none;" d="M203 64L204 65L203 64M13 65L14 66L13 65z"/>
<path style="fill:#475059; stroke:none;" d="M22.3333 65.6667L22.6667 66.3333L22.3333 65.6667z"/>
<path style="fill:#2395e9; stroke:none;" d="M202 65L203 66L202 65M211 65L212 66L211 65M20 66L21 67L20 66z"/>
<path style="fill:#1673c5; stroke:none;" d="M109 66L110 67L109 66z"/>
<path style="fill:#475059; stroke:none;" d="M202.333 66.6667L202.667 67.3333L202.333 66.6667z"/>
<path style="fill:#2395e9; stroke:none;" d="M204 66L205 67L204 66M12 67L13 68L12 67z"/>
<path style="fill:#475059; stroke:none;" d="M21.3333 67.6667L21.6667 68.3333L21.3333 67.6667z"/>
<path style="fill:#2395e9; stroke:none;" d="M203 67L204 68L203 67M212 67L213 68L212 67M19 68L20 69L19 68M148 68L149 69L148 68M205 68L206 69L205 68M11 69L12 70L11 69M213 69L214 70L213 69M18 70L19 71L18 70z"/>
<path style="fill:#475059; stroke:none;" d="M20 70L21 71L20 70z"/>
<path style="fill:#2395e9; stroke:none;" d="M19 71L20 72L19 71z"/>
<path style="fill:#475059; stroke:none;" d="M204 71L205 72L204 71M19 72L20 73L19 72z"/>
<path style="fill:#2395e9; stroke:none;" d="M18 73L19 74L18 73M40 73L41 74L40 73z"/>
<path style="fill:#1673c5; stroke:none;" d="M104.333 73.6667L104.667 74.3333L104.333 73.6667M118 73L118 76L119 76L118 73z"/>
<path style="fill:#2395e9; stroke:none;" d="M9 74L10 75L9 74z"/>
<path style="fill:#475059; stroke:none;" d="M18.3333 74.6667L18.6667 75.3333L18.3333 74.6667z"/>
<path style="fill:#f6f9f9; stroke:none;" d="M61.0401 75.2917C54.3744 76.4803 61.1428 87.6292 63.2137 89.9599C69.2689 96.7745 85.5495 103.034 94.5625 98.3966C97.4217 96.9253 96.5816 93.1836 93.7708 92.3179C85.7028 89.8329 78.2827 93.1525 71.0432 86.7755C68.4752 84.5134 64.7784 74.625 61.0401 75.2917z"/>
<path style="fill:#1673c5; stroke:none;" d="M109 74L110 75L109 74z"/>
<path style="fill:#f6f9f9; stroke:none;" d="M166.173 74.9707C162.039 76.0773 160.099 85.3008 155.985 88.0309C149.438 92.3748 138.8 88.9112 133.604 93.027C131.179 94.948 132.234 98.651 135.148 99.142C140.049 99.9674 147.225 99.3643 152 98.0725C159.126 96.1449 165.55 91.8618 168.647 85C169.745 82.5672 171.978 73.4164 166.173 74.9707z"/>
<path style="fill:#2395e9; stroke:none;" d="M206 74L207 75L206 74M215 74L216 75L215 74M16 75L17 76L16 75M40 75L41 76L40 75z"/>
<path style="fill:#1673c5; stroke:none;" d="M148 75L146 76L146 77L148 75z"/>
<path style="fill:#2395e9; stroke:none;" d="M190 75L191 76L190 75M208 75L209 76L208 75z"/>
<path style="fill:#f6f9f9; stroke:none;" d="M78.3333 76.6667L78.6667 77.3333L78.3333 76.6667z"/>
<path style="fill:#475059; stroke:none;" d="M79 76L80 77L79 76z"/>
<path style="fill:#1673c5; stroke:none;" d="M80 76L81 77L80 76z"/>
<path style="fill:#2395e9; stroke:none;" d="M207 76L208 77L207 76M8 77L9 78L8 77z"/>
<path style="fill:#475059; stroke:none;" d="M17 77L18 78L17 77z"/>
<path style="fill:#2395e9; stroke:none;" d="M43 77L44 78L43 77z"/>
<path style="fill:#1673c5; stroke:none;" d="M108 77L109 78L108 77z"/>
<path style="fill:#2395e9; stroke:none;" d="M188 77L188 80L189 80L188 77M216 77L217 78L216 77M16 78L17 79L16 78M41 79L41 80L58 79L41 79z"/>
<path style="fill:#1673c5; stroke:none;" d="M79 78L80 79L79 78M147.333 78.6667L147.667 79.3333L147.333 78.6667z"/>
<path style="fill:#2395e9; stroke:none;" d="M171 78L171 79L175 81L176 81L187 80L171 78z"/>
<path style="fill:#1673c5; stroke:none;" d="M66 79L72 84L70 79L66 79M72.6667 79.3333L73.3333 79.6667L72.6667 79.3333M77 79L78 80L77 79M124.667 79.3333L125.333 79.6667L124.667 79.3333M149 79L149 80L156 82L155 80L156 80L160 82L160 79L149 79M162 79L163 80L162 79z"/>
<path style="fill:#2395e9; stroke:none;" d="M170.333 79.6667L170.667 80.3333L170.333 79.6667M208 79L209 80L208 79M7 80L8 81L7 80M56 80L54 84L56 80z"/>
<path style="fill:#1673c5; stroke:none;" d="M135 80L136 81L135 80M161.333 80.6667L161.667 81.3333L161.333 80.6667z"/>
<path style="fill:#2395e9; stroke:none;" d="M217 80L218 81L217 80M15 81L16 82L15 81z"/>
<path style="fill:#1673c5; stroke:none;" d="M67 82L68 83L67 82M133 82L134 83L133 82M157 82L160 85L161 82L157 82z"/>
<path style="fill:#2395e9; stroke:none;" d="M171 82L172 83L171 82M174.333 82.6667L174.667 83.3333L174.333 82.6667z"/>
<path style="fill:#475059; stroke:none;" d="M15.3333 83.6667L15.6667 84.3333L15.3333 83.6667z"/>
<path style="fill:#1673c5; stroke:none;" d="M68 83L69 84L68 83z"/>
<path style="fill:#2395e9; stroke:none;" d="M209 83L210 84L209 83M6 84L7 85L6 84M14 84L15 85L14 84z"/>
<path style="fill:#1673c5; stroke:none;" d="M74 84L75 85L74 84M153 87L156 84L153 87z"/>
<path style="fill:#475059; stroke:none;" d="M209.333 84.6667L209.667 85.3333L209.333 84.6667z"/>
<path style="fill:#2395e9; stroke:none;" d="M218 84L219 85L218 84z"/>
<path style="fill:#1673c5; stroke:none;" d="M70 85L70 87L72 85L70 85M155 88L159 85L155 88z"/>
<path style="fill:#2395e9; stroke:none;" d="M170 85L171 86L170 85M173.333 85.6667L173.667 86.3333L173.333 85.6667z"/>
<path style="fill:#475059; stroke:none;" d="M14.3333 86.6667L14.6667 87.3333L14.3333 86.6667z"/>
<path style="fill:#2395e9; stroke:none;" d="M56 86L57 87L56 86M210 86L211 87L210 86z"/>
<path style="fill:#1673c5; stroke:none;" d="M72 87L73 88L72 87M168 87L169 88L168 87z"/>
<path style="fill:#475059; stroke:none;" d="M210.333 87.6667L210.667 88.3333L210.333 87.6667z"/>
<path style="fill:#2395e9; stroke:none;" d="M5 88L6 89L5 88M13.3333 88.6667L13.6667 89.3333L13.3333 88.6667M49 88L52 91L49 88z"/>
<path style="fill:#1673c5; stroke:none;" d="M74.6667 88.3333L75.3333 88.6667L74.6667 88.3333M79 88L80 89L79 88M147 88L147 89L151 89L147 88M153.667 88.3333L154.333 88.6667L153.667 88.3333M167 88L168 89L167 88z"/>
<path style="fill:#2395e9; stroke:none;" d="M56.3333 89.6667L56.6667 90.3333L56.3333 89.6667M59.3333 89.6667L59.6667 90.3333L59.3333 89.6667z"/>
<path style="fill:#1673c5; stroke:none;" d="M76.6667 89.3333L77.3333 89.6667L76.6667 89.3333M79 91L82 91L81 89L79 91M152 89L153 90L152 89M166 89L167 90L166 89M135 90L136 91L135 90M146.667 90.3333L147.333 90.6667L146.667 90.3333M167 90L162 95L162 96L168 94L167 90z"/>
<path style="fill:#2395e9; stroke:none;" d="M211 90L212 91L211 90M61 91L62 92L61 91z"/>
<path style="fill:#1673c5; stroke:none;" d="M85 91L85 92L93 92L85 91M144.667 91.3333L145.333 91.6667L144.667 91.3333z"/>
<path style="fill:#2395e9; stroke:none;" d="M11 92L12 93L11 92z"/>
<path style="fill:#1673c5; stroke:none;" d="M56 95L59 92L56 95M163 92L164 93L163 92z"/>
<path style="fill:#2395e9; stroke:none;" d="M175 92L176 93L175 92M213 92L214 93L213 92M12 93L13 94L12 93z"/>
<path style="fill:#1673c5; stroke:none;" d="M162 93L163 94L162 93z"/>
<path style="fill:#2395e9; stroke:none;" d="M220 93L221 94L220 93z"/>
<path style="fill:#1673c5; stroke:none;" d="M63 94L64 95L63 94M65 94L65 95L68 95L65 94M161 94L162 95L161 94M68 95L69 96L68 95M160 95L158 99L160 95z"/>
<path style="fill:#2395e9; stroke:none;" d="M212.333 95.6667L212.667 96.3333L212.333 95.6667z"/>
<path style="fill:#1673c5; stroke:none;" d="M70.6667 96.3333L71.3333 96.6667L70.6667 96.3333M155.667 97.3333L156.333 97.6667L155.667 97.3333z"/>
<path style="fill:#475059; stroke:none;" d="M212 97L212 102L213 102L212 97z"/>
<path style="fill:#2395e9; stroke:none;" d="M10 98L12 101L10 98z"/>
<path style="fill:#1673c5; stroke:none;" d="M76 98L77 99L76 98M152.667 98.3333L153.333 98.6667L152.667 98.3333z"/>
<path style="fill:#2395e9; stroke:none;" d="M214 98L215 99L214 98z"/>
<path style="fill:#1673c5; stroke:none;" d="M72 99L73 100L72 99M77 99L78 100L77 99M80.6667 99.3333L81.3333 99.6667L80.6667 99.3333M154 99L154 100L157 100L154 99z"/>
<path style="fill:#2395e9; stroke:none;" d="M221.333 99.6667L221.667 100.333L221.333 99.6667M3 100L4 101L3 100z"/>
<path style="fill:#f6f9f9; stroke:none;" d="M10 100L10 125L11 125L10 100z"/>
<path style="fill:#1673c5; stroke:none;" d="M148 100L149 101L148 100M159 100L160 101L159 100M72 101L73 102L72 101M78.6667 101.333L79.3333 101.667L78.6667 101.333z"/>
<path style="fill:#475059; stroke:none;" d="M11 102L11 123L12 123L11 102z"/>
<path style="fill:#1673c5; stroke:none;" d="M75 102L76 103L75 102M159 102L160 103L159 102z"/>
<path style="fill:#2395e9; stroke:none;" d="M213 102L213 106L214 106L213 102z"/>
<path style="fill:#1673c5; stroke:none;" d="M78.6667 103.333L79.3333 103.667L78.6667 103.333M156.667 103.333L157.333 103.667L156.667 103.333z"/>
<path style="fill:#2395e9; stroke:none;" d="M9 109L9 115L10 115L9 109M213 118L213 123L214 123L213 118z"/>
<path style="fill:#475059; stroke:none;" d="M212.333 123.667L212.667 124.333L212.333 123.667z"/>
<path style="fill:#2395e9; stroke:none;" d="M3.33333 124.667L3.66667 125.333L3.33333 124.667M11 124L10 128L11 128L11 124M221 124L222 125L221 124M214.333 125.667L214.667 126.333L214.333 125.667z"/>
<path style="fill:#475059; stroke:none;" d="M12.3333 128.667L12.6667 129.333L12.3333 128.667z"/>
<path style="fill:#2395e9; stroke:none;" d="M57 128L58 129L57 128z"/>
<path style="fill:#1673c5; stroke:none;" d="M62 128L59 135L63 134L62 128M64 128L64 129L67 129L64 128M116 128L117 129L116 128M144.667 128.333L145.333 128.667L144.667 128.333M159 128L168 129L168 128L159 128z"/>
<path style="fill:#2395e9; stroke:none;" d="M174 128L175 129L174 128M212.333 128.667L212.667 129.333L212.333 128.667M51.3333 129.667L51.6667 130.333L51.3333 129.667M12.3333 130.667L12.6667 131.333L12.3333 130.667z"/>
<path style="fill:#1673c5; stroke:none;" d="M96 130L97 131L96 130M147 131L147 132L155 131L147 131M64 131L64 132L68 132L64 131M72 131L72 132L80 132L72 131M158 133L158 134L165 132L158 133z"/>
<path style="fill:#2395e9; stroke:none;" d="M220 131L221 132L220 131M11 132L12 133L11 132z"/>
<path style="fill:#475059; stroke:none;" d="M13.3333 132.667L13.6667 133.333L13.3333 132.667z"/>
<path style="fill:#2395e9; stroke:none;" d="M54 132L57 136L54 132z"/>
<path style="fill:#1673c5; stroke:none;" d="M102 132L103 133L102 132z"/>
<path style="fill:#2395e9; stroke:none;" d="M213 132L214 133L213 132z"/>
<path style="fill:#1673c5; stroke:none;" d="M64 133L64 134L72 134L64 133M73 133L74 134L73 133M75 133L76 134L75 133M77 133L78 134L77 133M79 133L80 134L79 133M146 133L147 134L146 133M150.667 133.333L151.333 133.667L150.667 133.333z"/>
<path style="fill:#2395e9; stroke:none;" d="M167 133L166 136L167 133M211.333 133.667L211.667 134.333L211.333 133.667z"/>
<path style="fill:#f6f9f9; stroke:none;" d="M101 135L102 181L132 181L132 172L113 172L113 145L111.397 135.078L101 135M135 167C135 169.971 134.128 174.777 136.028 177.297C142.727 186.185 165.208 181.056 170.142 172.985C181.425 154.529 154.903 156.585 148.931 148.744C146.483 145.529 151.455 142.908 154.005 142.434C159.675 141.379 164.938 145.161 170 147L170 136C165.237 135.3 160.873 134.002 156 134.002C144.873 134.001 127.895 143.803 138.653 156.671C143.622 162.614 154.122 160.529 158.338 166.39C161.046 170.155 156.158 172.641 152.999 172.852C146.307 173.299 141.04 168.911 135 167z"/>
<path style="fill:#2395e9; stroke:none;" d="M13 135L14 136L13 135z"/>
<path style="fill:#f6f9f9; stroke:none;" d="M60 135L60 181L72 181L72 165C85.8395 168.009 105.018 152.638 91.7716 139.225C84.6442 132.008 69.2417 135 60 135z"/>
<path style="fill:#1673c5; stroke:none;" d="M87 135L88 136L87 135M116 135L117 136L116 135M143 135L144 136L143 135z"/>
<path style="fill:#475059; stroke:none;" d="M210.333 135.667L210.667 136.333L210.333 135.667z"/>
<path style="fill:#2395e9; stroke:none;" d="M5 136L6 137L5 136z"/>
<path style="fill:#475059; stroke:none;" d="M14 136L14 139L15 139L14 136z"/>
<path style="fill:#2395e9; stroke:none;" d="M58 136L58 139L59 139L58 136z"/>
<path style="fill:#1673c5; stroke:none;" d="M136 136L137 137L136 136M141 136L142 137L141 136z"/>
<path style="fill:#2395e9; stroke:none;" d="M174 136L174 138L176 136L174 136M219 136L220 137L219 136z"/>
<path style="fill:#1673c5; stroke:none;" d="M91.6667 137.333L92.3333 137.667L91.6667 137.333z"/>
<path style="fill:#2395e9; stroke:none;" d="M170 137L170 145L171 145L173 138L170 137M212 137L213 138L212 137z"/>
<path style="fill:#1673c5; stroke:none;" d="M138 138L139 139L138 138z"/>
<path style="fill:#2395e9; stroke:none;" d="M173.333 138.667L173.667 139.333L173.333 138.667z"/>
<path style="fill:#475059; stroke:none;" d="M209 138L209 141L210 141L209 138z"/>
<path style="fill:#2395e9; stroke:none;" d="M210 138L211 139L210 138M14 139L15 140L14 139z"/>
<path style="fill:#1673c5; stroke:none;" d="M113 139L113 172L131 171L131 170L119 170L119 169L128 169L128 168L125 163L121 165L121 166L123 168C118.771 163.859 120 157.56 120 152L119 152L118 169L117 169L118 147L117 147L117 152L116 152C116 147.111 116.686 142.61 113 139M137.333 139.667L137.667 140.333L137.333 139.667z"/>
<path style="fill:#2395e9; stroke:none;" d="M13 140L14 141L13 140z"/>
<path style="fill:#475059; stroke:none;" d="M15 140L16 141L15 140z"/>
<path style="fill:#1673c5; stroke:none;" d="M95 140L96 141L95 140z"/>
<path style="fill:#2395e9; stroke:none;" d="M211 140L212 141L211 140M218 140L219 141L218 140z"/>
<path style="fill:#1673c5; stroke:none;" d="M94 141L95 142L94 141M136.333 141.667L136.667 142.333L136.333 141.667z"/>
<path style="fill:#2395e9; stroke:none;" d="M209 141L210 142L209 141M15.3333 142.667L15.6667 143.333L15.3333 142.667M152 142L153 143L152 142z"/>
<path style="fill:#475059; stroke:none;" d="M163 150L162 152L165 154L170 149C166.358 144.507 158.982 141.099 153.019 142.612C150.297 143.302 146.151 147.54 150.323 149.539C153.21 150.922 159.394 149.302 163 150z"/>
<path style="fill:#2395e9; stroke:none;" d="M157.667 142.333L158.333 142.667L157.667 142.333M174 142L175 146L174 142z"/>
<path style="fill:#475059; stroke:none;" d="M72 143L72 154L73 154L73 151L82 152L81 155C87.3079 147.492 78.9435 143.149 72 143z"/>
<path style="fill:#2395e9; stroke:none;" d="M78 143L79 144L78 143M162 143L163 144L162 143M7 144L8 145L7 144z"/>
<path style="fill:#475059; stroke:none;" d="M113 144L113 171L114 171L113 144z"/>
<path style="fill:#1673c5; stroke:none;" d="M135 144L136 145L135 144z"/>
<path style="fill:#2395e9; stroke:none;" d="M148 144L149 145L148 144M164 144L165 145L164 144M208 144L209 145L208 144M217 144L218 145L217 144z"/>
<path style="fill:#475059; stroke:none;" d="M59.3333 145.667L59.6667 146.333L59.3333 145.667z"/>
<path style="fill:#2395e9; stroke:none;" d="M95 145L95 148L96 148L95 145z"/>
<path style="fill:#1673c5; stroke:none;" d="M170 145L171 146L170 145z"/>
<path style="fill:#475059; stroke:none;" d="M171 145L172 146L171 145z"/>
<path style="fill:#1673c5; stroke:none;" d="M133 146L133 150L132 150L132 148L131 148L130 161L133 160L133 161L128 161L128 166L132 163L131 167L132 167L136 164L136 165L134 167L155 173L155 170C140.253 168.67 136.637 158.941 135 146L133 146z"/>
<path style="fill:#2395e9; stroke:none;" d="M170 146L171 147L170 146M8 147L9 148L8 147z"/>
<path style="fill:#475059; stroke:none;" d="M17 147L18 148L17 147z"/>
<path style="fill:#2395e9; stroke:none;" d="M147 147L148 148L147 147M169 147L170 148L169 147M207 147L208 148L207 147M216 147L217 148L216 147M17 148L18 149L17 148M83.3333 148.667L83.6667 149.333L83.3333 148.667z"/>
<path style="fill:#1673c5; stroke:none;" d="M153 151L165 154L162 152L163 150C158.849 148.719 156.271 147.711 153 151z"/>
<path style="fill:#475059; stroke:none;" d="M206 148L207 149L206 148z"/>
<path style="fill:#2395e9; stroke:none;" d="M16 149L17 150L16 149z"/>
<path style="fill:#475059; stroke:none;" d="M18 149L19 150L18 149M59 149C59 159.187 56.4713 173.273 59.6528 182.981C62.3373 191.172 70.3122 187.312 72 181L60 181L59 149z"/>
<path style="fill:#2395e9; stroke:none;" d="M148 149L149 150L148 149M208 149L209 150L208 149M9 150L10 151L9 150z"/>
<path style="fill:#1673c5; stroke:none;" d="M73 151C72.5251 157.185 75.8906 156.629 81 156L82 152L73 151z"/>
<path style="fill:#2395e9; stroke:none;" d="M95.3333 150.667L95.6667 151.333L95.3333 150.667M150 150L151 151L150 150z"/>
<path style="fill:#1673c5; stroke:none;" d="M151 150L152 151L151 150z"/>
<path style="fill:#2395e9; stroke:none;" d="M175 150L176 151L175 150M206 150L207 151L206 150M18 151L19 152L18 151M83 151L84 152L83 151M154 151L155 152L154 151z"/>
<path style="fill:#1673c5; stroke:none;" d="M167 151L168 152L167 151z"/>
<path style="fill:#475059; stroke:none;" d="M100 152L100 180L101 180L100 152z"/>
<path style="fill:#2395e9; stroke:none;" d="M158 152L159 153L158 152z"/>
<path style="fill:#475059; stroke:none;" d="M159 152L160 153L159 152z"/>
<path style="fill:#2395e9; stroke:none;" d="M205 152L206 153L205 152M19 153L20 154L19 153z"/>
<path style="fill:#475059; stroke:none;" d="M95 153C91.4978 163.301 81.8617 165.973 72 166L72 181L73 181C73.9656 168.201 101.081 170.533 95 153z"/>
<path style="fill:#2395e9; stroke:none;" d="M136 153L137 154L136 153M161.667 153.333L162.333 153.667L161.667 153.333M18 154L19 155L18 154z"/>
<path style="fill:#475059; stroke:none;" d="M20 154L21 155L20 154M136 154C137.328 164.192 144.883 169.53 155 170L154 172C157.414 171.455 161.981 168.454 157.677 165.089C151.239 160.054 142.681 159.97 136 154z"/>
<path style="fill:#2395e9; stroke:none;" d="M164 154L165 155L164 154M175.333 154.667L175.667 155.333L175.333 154.667M204 154L205 155L204 154M11 155L12 156L11 155M20 155L21 156L20 155z"/>
<path style="fill:#475059; stroke:none;" d="M72.3333 155.667L72.6667 156.333L72.3333 155.667z"/>
<path style="fill:#2395e9; stroke:none;" d="M94 155L95 156L94 155M137 155L138 156L137 155M166 155L167 156L166 155M213 155L214 156L213 155M19 156L20 157L19 156z"/>
<path style="fill:#475059; stroke:none;" d="M21 156L22 157L21 156z"/>
<path style="fill:#2395e9; stroke:none;" d="M77.6667 156.333L78.3333 156.667L77.6667 156.333M168 156L169 157L168 156M205 156L206 157L205 156M12 157L13 158L12 157M21 157L22 158L21 157M93 157L94 158L93 157z"/>
<path style="fill:#475059; stroke:none;" d="M202 157L203 158L202 157z"/>
<path style="fill:#2395e9; stroke:none;" d="M212 157L213 158L212 157M20 158L21 159L20 158M140 158L141 159L140 158M174 158L175 159L174 158M202 158L203 159L202 158M204 158L205 159L204 158M170 159L171 160L170 159z"/>
<path style="fill:#475059; stroke:none;" d="M23 160L24 161L23 160z"/>
<path style="fill:#1673c5; stroke:none;" d="M123 160L125 162L125 160L123 160z"/>
<path style="fill:#475059; stroke:none;" d="M171 160L172 161L171 160z"/>
<path style="fill:#2395e9; stroke:none;" d="M172 160L173 161L172 160M201 160L202 161L201 160M14 161L15 162L14 161M23 161L24 162L23 161M146 161L147 162L146 161M171 161L172 162L171 161z"/>
<path style="fill:#475059; stroke:none;" d="M200 161L201 162L200 161z"/>
<path style="fill:#2395e9; stroke:none;" d="M210 161L211 162L210 161M22 162L23 163L22 162z"/>
<path style="fill:#475059; stroke:none;" d="M24 162L25 165L26 165L24 162z"/>
<path style="fill:#2395e9; stroke:none;" d="M88 162L89 163L88 162M200 162L201 163L200 162M15 163L16 164L15 163M24 163L25 164L24 163z"/>
<path style="fill:#1673c5; stroke:none;" d="M92 163L93 164L92 163z"/>
<path style="fill:#2395e9; stroke:none;" d="M154 163L155 164L154 163z"/>
<path style="fill:#475059; stroke:none;" d="M199 163L198 165L199 163z"/>
<path style="fill:#2395e9; stroke:none;" d="M84 164L85 165L84 164M199 164L200 165L199 164M16 165L17 166L16 165z"/>
<path style="fill:#475059; stroke:none;" d="M26 165L27 168L28 168L26 165z"/>
<path style="fill:#2395e9; stroke:none;" d="M72.6667 165.333L73.3333 165.667L72.6667 165.333M78 165L78 166L81 166L78 165M172 165L173 166L172 165M198 165L199 166L198 165M200 165L201 166L200 165M208 165L209 166L208 165M26 166L27 167L26 166z"/>
<path style="fill:#1673c5; stroke:none;" d="M133 167L134 168L133 167z"/>
<path style="fill:#2395e9; stroke:none;" d="M137 167L138 168L137 167z"/>
<path style="fill:#475059; stroke:none;" d="M196 167L197 168L196 167z"/>
<path style="fill:#2395e9; stroke:none;" d="M197 167L198 168L197 167z"/>
<path style="fill:#475059; stroke:none;" d="M28 168L29 171L30 171L28 168z"/>
<path style="fill:#2395e9; stroke:none;" d="M96 168L96 176L97 176L96 168z"/>
<path style="fill:#1673c5; stroke:none;" d="M134 168L133 176L135 176L134 168z"/>
<path style="fill:#2395e9; stroke:none;" d="M139 168L140 169L139 168z"/>
<path style="fill:#475059; stroke:none;" d="M195 168L192 174L193 174L195 168z"/>
<path style="fill:#2395e9; stroke:none;" d="M28 169L29 170L28 169M140 169L141 170L140 169M19 170L20 171L19 170M142 170L143 171L142 170M159 170L160 171L159 170M171 170L172 171L171 170M195 170L196 171L195 170M205 170L206 171L205 170M28 171L29 172L28 171z"/>
<path style="fill:#475059; stroke:none;" d="M30 171L32 173L30 171z"/>
<path style="fill:#2395e9; stroke:none;" d="M144.667 171.333L145.333 171.667L144.667 171.333M158 171L159 172L158 171z"/>
<path style="fill:#475059; stroke:none;" d="M171 171C163.283 185.743 145.12 181.942 133 176L133 181L100 181C106.212 194.35 128.157 188.568 135 180C137.503 195.47 178.593 189.625 171 171z"/>
<path style="fill:#2395e9; stroke:none;" d="M194 171L195 172L194 171M30 172L31 173L30 172M148.667 172.333L149.333 172.667L148.667 172.333z"/>
<path style="fill:#475059; stroke:none;" d="M152.667 172.333L153.333 172.667L152.667 172.333z"/>
<path style="fill:#2395e9; stroke:none;" d="M155.667 172.333L156.333 172.667L155.667 172.333M21 173L22 174L21 173M31 173L32 174L31 173M203 173L204 174L203 173M30 174L31 175L30 174M169 174L170 175L169 174M192 174L193 175L192 174M194 174L195 175L194 174M168 175L169 176L168 175M23 176L24 177L23 176z"/>
<path style="fill:#475059; stroke:none;" d="M34 176L36 178L34 176z"/>
<path style="fill:#2395e9; stroke:none;" d="M101 176L101 181L102 181L101 176M167 176L168 177L167 176M34 177L35 178L34 177z"/>
<path style="fill:#1673c5; stroke:none;" d="M132 177L132 181L133 181L132 177z"/>
<path style="fill:#2395e9; stroke:none;" d="M166 177L167 178L166 177M200 177L201 178L200 177M35 178L36 179L35 178M136 178L137 179L136 178M164 178L165 179L164 178z"/>
<path style="fill:#475059; stroke:none;" d="M188 178L189 179L188 178z"/>
<path style="fill:#2395e9; stroke:none;" d="M36 179L37 180L36 179M96 179L97 180L96 179M139 179L140 180L139 179M26 180L27 181L26 180M35 180L36 181L35 180M143 180L144 181L143 180M27 181L28 182L27 181M36 181L37 182L36 181M38 181L39 182L38 181M150 181L150 182L154 182L150 181M188 181L189 182L188 181M197 181L198 182L197 181z"/>
<path style="fill:#475059; stroke:none;" d="M39 182L40 183L39 182z"/>
<path style="fill:#2395e9; stroke:none;" d="M185 182L186 183L185 182z"/>
<path style="fill:#475059; stroke:none;" d="M40 183L41 184L40 183z"/>
<path style="fill:#2395e9; stroke:none;" d="M184 183L185 184L184 183z"/>
<path style="fill:#475059; stroke:none;" d="M41 184L42 185L41 184z"/>
<path style="fill:#2395e9; stroke:none;" d="M183 184L184 185L183 184M42 185L43 186L42 185z"/>
<path style="fill:#475059; stroke:none;" d="M43.3333 185.667L43.6667 186.333L43.3333 185.667z"/>
<path style="fill:#2395e9; stroke:none;" d="M182 185L183 186L182 185M181 186L182 187L181 186z"/>
<path style="fill:#f7f93f; stroke:none;" d="M183 186L184 187L183 186z"/>
<path style="fill:#2395e9; stroke:none;" d="M42 187L43 188L42 187M44 187L46 189L44 187z"/>
<path style="fill:#475059; stroke:none;" d="M45 187L46 188L45 187z"/>
<path style="fill:#2395e9; stroke:none;" d="M43 188L44 189L43 188z"/>
<path style="fill:#475059; stroke:none;" d="M46 188L47 189L46 188M177 188L178 189L177 188z"/>
<path style="fill:#2395e9; stroke:none;" d="M34 189L35 190L34 189z"/>
<path style="fill:#475059; stroke:none;" d="M47 189L48 190L47 189z"/>
<path style="fill:#2395e9; stroke:none;" d="M190 189L191 190L190 189M176 190L177 191L176 190M189 190L190 191L189 190M49 191L50 192L49 191M175 191L176 192L175 191M50 192L51 193L50 192z"/>
<path style="fill:#475059; stroke:none;" d="M51 192L52 193L51 192M172.667 192.333L173.333 192.667L172.667 192.333z"/>
<path style="fill:#2395e9; stroke:none;" d="M49 193L50 194L49 193z"/>
<path style="fill:#475059; stroke:none;" d="M53 194L53 195L56 196L53 194M170 194L171 195L170 194z"/>
<path style="fill:#2395e9; stroke:none;" d="M171 194L172 195L171 194M54 195L55 196L54 195z"/>
<path style="fill:#475059; stroke:none;" d="M167 197L170 196L167 197M56.6667 196.333L57.3333 196.667L56.6667 196.333z"/>
<path style="fill:#2395e9; stroke:none;" d="M168 196L169 197L168 196M43 197L44 198L43 197M57 197L58 198L57 197M166 197L167 198L166 197M181 197L182 198L181 197M59 198L60 199L59 198z"/>
<path style="fill:#475059; stroke:none;" d="M60 198L61 199L60 198M163 198L161 199L161 200L163 198z"/>
<path style="fill:#2395e9; stroke:none;" d="M165 198L166 199L165 198M168 198L169 199L168 198M163 199L164 200L163 199M47 200L48 201L47 200M62 200L63 201L62 200M161 200L162 201L161 200M177 200L178 201L177 200M61 201L62 202L61 201M64 201L65 202L64 201z"/>
<path style="fill:#475059; stroke:none;" d="M66 201L69 203L69 202L66 201z"/>
<path style="fill:#2395e9; stroke:none;" d="M163 201L164 202L163 201M50 202L51 203L50 202M66 202L67 203L66 202z"/>
<path style="fill:#475059; stroke:none;" d="M156 202L157 203L156 202z"/>
<path style="fill:#2395e9; stroke:none;" d="M161 202L162 203L161 202M65 203L66 204L65 203M68 203L69 204L68 203M53 204L54 205L53 204M67 204L68 205L67 204M70 204L71 205L70 204M153 204L154 205L153 204M157 204L158 205L157 204M171 204L172 205L171 204M69 205L70 206L69 205M73 205L74 206L73 205z"/>
<path style="fill:#475059; stroke:none;" d="M74 205L75 206L74 205z"/>
<path style="fill:#2395e9; stroke:none;" d="M151 205L152 206L151 205M75 206L76 207L75 206z"/>
<path style="fill:#475059; stroke:none;" d="M76.6667 206.333L77.3333 206.667L76.6667 206.333M147 206L148 207L147 206z"/>
<path style="fill:#2395e9; stroke:none;" d="M148 206L149 207L148 206M58 207L59 208L58 207M74 207L75 208L74 207M78 207L79 208L78 207M145.667 207.333L146.333 207.667L145.667 207.333M150 207L151 208L150 207M166 207L167 208L166 207M81 208L82 209L81 208z"/>
<path style="fill:#475059; stroke:none;" d="M83.6667 208.333L84.3333 208.667L83.6667 208.333M140.667 208.333L141.333 208.667L140.667 208.333z"/>
<path style="fill:#2395e9; stroke:none;" d="M142.667 208.333L143.333 208.667L142.667 208.333M84 209L85 210L84 209z"/>
<path style="fill:#475059; stroke:none;" d="M86.6667 209.333L87.3333 209.667L86.6667 209.333M137 209L138 210L137 209z"/>
<path style="fill:#2395e9; stroke:none;" d="M139 209L140 210L139 209M88.6667 210.333L89.3333 210.667L88.6667 210.333z"/>
<path style="fill:#475059; stroke:none;" d="M131.667 210.333L132.333 210.667L131.667 210.333z"/>
<path style="fill:#2395e9; stroke:none;" d="M135 210L136 211L135 210M66 211L67 212L66 211M86 211L87 212L86 211M93.6667 211.333L94.3333 211.667L93.6667 211.333z"/>
<path style="fill:#475059; stroke:none;" d="M128 211L129 212L128 211z"/>
<path style="fill:#2395e9; stroke:none;" d="M130 211L131 212L130 211M138 211L139 212L138 211M158 211L159 212L158 211M91 212L92 213L91 212M100 212L100 213L104 213L100 212z"/>
<path style="fill:#475059; stroke:none;" d="M104 212L104 213L121 213L104 212z"/>
<path style="fill:#2395e9; stroke:none;" d="M121 212L121 213L124 213L121 212M133 212L134 213L133 212M156 212L157 213L156 212M96.6667 213.333L97.3333 213.667L96.6667 213.333M128 213L129 214L128 213M73 214L74 215L73 214M106 214L106 215L112 215L106 214M114 214L114 215L120 215L114 214M151 214L152 215L151 214M76 215L77 216L76 215M148 215L149 216L148 215M79 216L80 217L79 216M145 216L146 217L145 216M82 217L83 218L82 217M142 217L143 218L142 217M86 218L87 219L86 218M91 219L92 220L91 219M133 219L134 220L133 219M98 220L99 221L98 220M126 220L127 221L126 220z"/>
</svg>
